<svg xmlns="http://www.w3.org/2000/svg" width="388" height="113"><path d="M.963 111.204V1.67h36.719v14.376h-20.04v31.865h19.044v14.065H17.642v34.852H38.43v14.376H.963Zm55.514 0V16.108h-12.82V1.67h41.76v14.438H73.094v95.096H56.477Zm38.337 0V1.67h37.59v14.5h-20.911v29.127h19.418V59.86h-19.418v51.344H94.814Zm69.268 1.245c-4.564 0-8.381-.705-11.451-2.116-3.029-1.452-5.435-3.548-7.219-6.286-1.743-2.78-2.988-6.14-3.734-10.082-.747-3.983-1.121-8.506-1.121-13.567v-9.771h15.808v11.015c0 5.892.498 10.124 1.494 12.696.996 2.573 2.966 3.859 5.912 3.859 1.992 0 3.485-.457 4.481-1.37 1.037-.953 1.722-2.447 2.054-4.48.373-2.075.56-4.772.56-8.09 0-4.108-.871-7.863-2.614-11.265-1.701-3.403-4.294-6.93-7.779-10.58l-8.091-8.34a60.95 60.95 0 0 1-6.099-7.406c-1.784-2.614-3.216-5.518-4.294-8.713-1.038-3.236-1.556-6.846-1.556-10.829 0-5.767.705-10.642 2.116-14.625 1.411-3.983 3.796-6.991 7.157-9.025C153.067 1.4 157.672.363 163.522.363c4.398 0 8.008.684 10.829 2.053 2.863 1.328 5.083 3.299 6.659 5.913 1.619 2.572 2.759 5.726 3.423 9.46.664 3.692.996 7.924.996 12.696v6.783h-15.372v-7.841c0-3.32-.187-6.079-.56-8.278-.332-2.199-.975-3.838-1.929-4.916-.955-1.12-2.345-1.68-4.17-1.68-1.743 0-3.154.394-4.232 1.182-1.079.747-1.867 1.93-2.365 3.547-.457 1.577-.685 3.63-.685 6.162 0 2.282.291 4.252.871 5.912.581 1.66 1.473 3.257 2.677 4.792 1.203 1.535 2.696 3.257 4.481 5.166l9.024 9.77c4.315 4.648 7.675 9.481 10.082 14.501 2.406 5.02 3.61 10.622 3.61 16.804 0 6.556-.706 12.074-2.116 16.555-1.411 4.439-3.776 7.8-7.095 10.082-3.32 2.282-7.842 3.423-13.568 3.423Zm42.569-1.245L193.271 1.67h14.936l8.029 78.043L226.442 1.67h13.443l10.269 78.043 7.095-78.043h14.999l-12.572 109.534h-16.617l-9.709-72.815-10.082 72.815h-16.617Zm68.895 0L291.167 1.67h22.032l16.616 109.534h-15.558l-2.614-19.542h-17.675l-2.365 19.542h-16.057Zm20.04-32.922H309.9l-7.344-55.017h-.249l-6.721 55.017Zm44.187 32.922V1.67h25.143c4.357 0 7.966.663 10.829 1.991 2.905 1.328 5.187 3.299 6.846 5.913 1.66 2.614 2.842 5.85 3.548 9.708.705 3.817 1.058 8.236 1.058 13.256v2.303c0 7.053-.623 13.07-1.867 18.048-1.204 4.938-3.382 8.693-6.535 11.265-3.153 2.573-7.593 3.859-13.319 3.859h-9.024v43.191h-16.679Zm16.679-56.945h5.726c2.448 0 4.273-.623 5.477-1.867 1.203-1.245 1.991-3.299 2.365-6.162.415-2.904.622-6.763.622-11.575v-2.117c-.041-5.933-.56-10.414-1.556-13.442-.996-3.07-3.257-4.606-6.784-4.606h-5.85V54.26Z" style="fill:#135f9c;stroke:none"/></svg>