<?xml version="1.0" encoding="UTF-8" standalone="no"?>
<!-- Created with Inkscape (http://www.inkscape.org/) -->

<svg
   version="1.1"
   id="svg228"
   width="437"
   height="394"
   viewBox="0 0 437 394"
   sodipodi:docname="Screenshot_from_2025-02-06_23-23-06-removebg-preview.png"
   xmlns:inkscape="http://www.inkscape.org/namespaces/inkscape"
   xmlns:sodipodi="http://sodipodi.sourceforge.net/DTD/sodipodi-0.dtd"
   xmlns="http://www.w3.org/2000/svg"
   xmlns:svg="http://www.w3.org/2000/svg">
  <defs
     id="defs232" />
  <sodipodi:namedview
     id="namedview230"
     pagecolor="#ffffff"
     bordercolor="#000000"
     borderopacity="0.25"
     inkscape:showpageshadow="2"
     inkscape:pageopacity="0.0"
     inkscape:pagecheckerboard="0"
     inkscape:deskcolor="#d1d1d1"
     showgrid="false" />
  <g
     inkscape:groupmode="layer"
     inkscape:label="Image"
     id="g234">
    <path
       style="fill:#135f9c;stroke:none"
       d="m 187.47745,76.399658 c 12.675,-4.011 23.775,-11.4857 37,-3.0301 14.505,9.274098 21.419,29.835102 30.062,44.030102 17.805,29.24399 34.339,59.30099 51.365,88.99999 8.042,14.026 20.596,29.225 24.573,45 h -107 c -12.499,0 -33.327,-4.048 -44.907,0.603 -7.105,2.854 -15.46,21.26 -17.093,28.397 h 130 c 16.886,0 39.671,4.261 53.816,-6.885 20.999,-16.548 10.091,-38.564 -0.122,-57.115 -21.673,-39.371 -44.497,-78.387 -67.493,-116.999994 -9.006,-15.1217 -16.512,-37.165198 -30.216,-48.531598 -23.627,-19.5983 -52.088,0.7479 -59.985,25.5316 m -62,242.999992 v -1 c -15.708,-5.76 -26.197596,-23.695 -20.189,-40 5.508,-14.947 16.279,-29.281 24.328,-43 14.8,-25.227 29.057,-50.779 43.872,-76 l 20.978,-35.99999 c 1.902,-3.238 4.8,-11.49 9.075,-12.079 3.892,-0.536 6.25,5.413 7.705,8.079 5.334,9.76799 11.067,19.37199 16.655,28.99999 12.938,22.293 25.534,44.776 38.587,67 4.104,6.987 8.766,20.987 16.082,24.972 6.583,3.585 24.891,2.102 31.907,0.028 -7.663,-24.047 -27.196,-48.021 -39.719,-70 -12.352,-21.679 -24.302,-43.89699 -37.601,-64.99999 -7.406,-11.750604 -13.793,-21.754104 -28.68,-23.710604 -23.526,-3.092098 -33.889,16.261 -43.85,33.710604 -21.894,38.35899 -43.247,77.28299 -66.211696,114.99999 -9.450198,15.521 -28.004098,37.991 -26.844198,57 1.8443,30.223 30.624894,32 53.905894,32 m 77,-192 c -24.246,36.642 -44.557,76.791 -66.281,115 -8.911,15.674 -23.06,32.877 -18.204,52 6.353,25.02 30.659,25 51.485,25 h 127 c 19.186,0 43.768,4.043 62,-2.711 23.743,-8.795 28.805,-48.008 7,-62.289 0,14.74 -5.596,29.192 -21,34.215 -13.87,4.522 -31.56,1.785 -46,1.785 h -93 -44 c -4.097,0 -12.716,1.563 -14.843,-3.148 -1.439,-3.189 1.553,-7.219 3.068,-9.852 l 14.495,-25 c 12.989,-22.705 26.037,-45.433 39.291,-68 4.451,-7.579 15.563,-20.051 15.563,-29 0,-8.007 -10.649,-23.091 -16.574,-28 z"
       id="path240" />
  </g>
</svg>
